<?xml version="1.0" encoding="UTF-8"?>
<svg version="1.1" xmlns="http://www.w3.org/2000/svg" width="200" height="200">
<path d="M0 0 C66 0 132 0 200 0 C200 66 200 132 200 200 C134 200 68 200 0 200 C0 134 0 68 0 0 Z " fill="#060608" transform="translate(0,0)"/>
<path d="M0 0 C17.66348405 -0.52726818 32.93364854 1.31335342 49 9 C49 9.66 49 10.32 49 11 C51.97 11.495 51.97 11.495 55 12 C55 12.66 55 13.32 55 14 C55.99 14.33 56.98 14.66 58 15 C58 15.66 58 16.32 58 17 C59.65 17.33 61.3 17.66 63 18 C63 18.66 63 19.32 63 20 C64.485 20.495 64.485 20.495 66 21 C66 21.66 66 22.32 66 23 C66.66 23 67.32 23 68 23 C68.2475 23.804375 68.495 24.60875 68.75 25.4375 C69.72238859 28.171081 69.72238859 28.171081 72.125 28.8125 C72.74375 28.874375 73.3625 28.93625 74 29 C74.33 30.32 74.66 31.64 75 33 C75.66 33 76.32 33 77 33 C77.33 33.99 77.66 34.98 78 36 C78.66 36.33 79.32 36.66 80 37 C80 37.99 80 38.98 80 40 C80.66 40 81.32 40 82 40 C82.33 42.31 82.66 44.62 83 47 C83.66 47 84.32 47 85 47 C85.33 49.97 85.66 52.94 86 56 C86.66 56 87.32 56 88 56 C90.35850075 62.08402417 91.45071177 67.36282227 91.3984375 73.875 C91.40274277 75.08905518 91.40274277 75.08905518 91.40713501 76.32763672 C91.40916064 78.0250723 91.40373689 79.72253203 91.39111328 81.41992188 C91.37503729 83.99402878 91.39101279 86.56656598 91.41015625 89.140625 C91.40817355 90.80208674 91.40432932 92.46354752 91.3984375 94.125 C91.40451019 94.88151855 91.41058289 95.63803711 91.4168396 96.41748047 C91.34400494 102.04816595 90.03009701 106.76313109 88 112 C87.34 112 86.68 112 86 112 C85.67 114.64 85.34 117.28 85 120 C84.34 120 83.68 120 83 120 C82.67 122.64 82.34 125.28 82 128 C81.34 128 80.68 128 80 128 C79.67 129.65 79.34 131.3 79 133 C78.34 133 77.68 133 77 133 C76.7525 133.556875 76.505 134.11375 76.25 134.6875 C74.77075182 137.42410913 73.06532561 139.67650869 71 142 C70.34 142 69.68 142 69 142 C69 142.99 69 143.98 69 145 C68.01 145 67.02 145 66 145 C65.67 145.99 65.34 146.98 65 148 C64.34 148 63.68 148 63 148 C63 148.66 63 149.32 63 150 C61.23042094 152.3283935 60.18416484 152.95288806 57.3125 153.6875 C56.549375 153.790625 55.78625 153.89375 55 154 C55 154.66 55 155.32 55 156 C54.01 156 53.02 156 52 156 C52 156.66 52 157.32 52 158 C50.73160474 158.50615298 49.46016898 159.00469099 48.1875 159.5 C47.12595703 159.91765625 47.12595703 159.91765625 46.04296875 160.34375 C44 161 44 161 41 161 C41 161.66 41 162.32 41 163 C35.23918159 164.2982126 29.91260345 165.25706972 24 165 C24 165.66 24 166.32 24 167 C15.24982888 168.16671704 6.51909375 168.12901157 -2.2890625 168.09765625 C-3.84418695 168.09578737 -5.399312 168.09436569 -6.95443726 168.09336853 C-11.01497063 168.08958037 -15.07546729 168.0797824 -19.13598633 168.06866455 C-24.02537783 168.05655497 -28.91478171 168.05203055 -33.80418396 168.04621124 C-41.20281471 168.03656808 -48.60136518 168.01738583 -56 168 C-56 146.88 -56 125.76 -56 104 C-41.48 104 -26.96 104 -12 104 C-12 113.24 -12 122.48 -12 132 C-1.11 131.67 9.78 131.34 21 131 C21 130.34 21 129.68 21 129 C22.98 128.67 24.96 128.34 27 128 C27 127.34 27 126.68 27 126 C32.41176471 122 32.41176471 122 35 122 C35 121.34 35 120.68 35 120 C35.66 120 36.32 120 37 120 C37.66 117.36 38.32 114.72 39 112 C39.66 112 40.32 112 41 112 C41 111.01 41 110.02 41 109 C41.66 109 42.32 109 43 109 C43.144375 108.05125 43.28875 107.1025 43.4375 106.125 C44 103 44 103 45 101 C46.92575599 89.01751829 47.28626597 76.12677 43.65625 64.48046875 C42.96941571 61.88439868 42.88483209 59.67285523 43 57 C41.515 56.505 41.515 56.505 40 56 C38.71875 54.2578125 38.71875 54.2578125 37.5 52.125 C36.23610911 49.92939468 35.15204369 48.14989213 33.34375 46.3671875 C32 45 32 45 32 43 C28.7 42.34 25.4 41.68 22 41 C22 40.34 22 39.68 22 39 C14.74 38.34 7.48 37.68 0 37 C0 24.79 0 12.58 0 0 Z " fill="#FAFAFA" transform="translate(85,19)"/>
<path d="M0 0 C4.29 0 8.58 0 13 0 C13 66 13 132 13 200 C8.71 200 4.42 200 0 200 C0 134 0 68 0 0 Z " fill="#FFFFFF" transform="translate(187,0)"/>
<path d="M0 0 C3.96 0 7.92 0 12 0 C12 66 12 132 12 200 C8.04 200 4.08 200 0 200 C0 134 0 68 0 0 Z " fill="#FFFFFF" transform="translate(0,0)"/>
<path d="M0 0 C14.52 0 29.04 0 44 0 C44 14.52 44 29.04 44 44 C29.48 44 14.96 44 0 44 C0 29.48 0 14.96 0 0 Z " fill="#2975BB" transform="translate(29,67)"/>
<path d="M0 0 C14.52 0 29.04 0 44 0 C44 11.88 44 23.76 44 36 C29.48 36 14.96 36 0 36 C0 24.12 0 12.24 0 0 Z " fill="#F8F8F8" transform="translate(29,19)"/>
<path d="M0 0 C14.52 0 29.04 0 44 0 C44 14.52 44 29.04 44 44 C29.48 44 14.96 44 0 44 C0 29.48 0 14.96 0 0 Z M2 4 C1.81246689 6.78510224 1.74438768 9.46899646 1.76953125 12.25390625 C1.76998947 13.06995834 1.77044769 13.88601044 1.7709198 14.72679138 C1.77394256 16.45255995 1.78182958 18.17832578 1.79418945 19.90405273 C1.81245022 22.55527333 1.81469914 25.20614496 1.81445312 27.85742188 C1.81936806 29.53125304 1.82519627 31.20508182 1.83203125 32.87890625 C1.83314407 33.67680069 1.8342569 34.47469513 1.83540344 35.29676819 C1.52316442 38.94858196 1.52316442 38.94858196 3 42 C5.79993597 42.10103255 8.57468644 42.13970088 11.375 42.1328125 C12.21466309 42.13376923 13.05432617 42.13472595 13.91943359 42.13571167 C15.69824295 42.13639348 17.47705477 42.13453917 19.25585938 42.13037109 C21.98833776 42.12502283 24.72065176 42.13031605 27.453125 42.13671875 C29.1770837 42.13605797 30.90104229 42.13477681 32.625 42.1328125 C33.44790527 42.13483673 34.27081055 42.13686096 35.11865234 42.13894653 C38.86379866 42.4857546 38.86379866 42.4857546 42 41 C42.08861992 38.1883662 42.11522355 35.40141745 42.09765625 32.58984375 C42.0962413 31.74780899 42.09482635 30.90577423 42.09336853 30.03822327 C42.08775263 27.33794665 42.07519748 24.63775172 42.0625 21.9375 C42.05748705 20.11132932 42.05292379 18.28515734 42.04882812 16.45898438 C42.03777804 11.97262458 42.02050279 7.48632616 42 3 C37.77992309 1.97872611 33.68152785 1.83899815 29.36328125 1.83203125 C28.64262985 1.82870285 27.92197845 1.82537445 27.17948914 1.82194519 C25.66418086 1.81690344 24.14886158 1.81453601 22.63354492 1.81469727 C20.30955045 1.81249721 17.98602085 1.79427624 15.66210938 1.77539062 C14.18750162 1.77245888 12.71289162 1.77047262 11.23828125 1.76953125 C10.19454094 1.75875298 10.19454094 1.75875298 9.12971497 1.74775696 C5.1180284 1.65678815 5.1180284 1.65678815 2 4 Z " fill="#31699D" transform="translate(29,67)"/>
<path d="M0 0 C2 2 2 2 2.24723816 3.8662262 C2.24581314 4.62265915 2.24438812 5.3790921 2.24291992 6.15844727 C2.24753487 7.44471764 2.24753487 7.44471764 2.25224304 8.75697327 C2.24505753 9.68408615 2.23787201 10.61119904 2.23046875 11.56640625 C2.23001053 12.51563461 2.22955231 13.46486298 2.2290802 14.44285583 C2.22605638 16.45109303 2.21816624 18.45932784 2.20581055 20.4675293 C2.18755439 23.55330649 2.18530082 26.63878383 2.18554688 29.72460938 C2.18063183 31.67187761 2.17480357 33.6191438 2.16796875 35.56640625 C2.16685593 36.49554337 2.1657431 37.42468048 2.16459656 38.38197327 C2.15821671 39.23633469 2.15183685 40.09069611 2.14526367 40.97094727 C2.13954597 42.10440331 2.13954597 42.10440331 2.13371277 43.26075745 C2 45 2 45 1 46 C-0.41225046 46.0928726 -1.82908934 46.11746772 -3.24438477 46.11352539 C-4.14524307 46.11344986 -5.04610138 46.11337433 -5.97425842 46.11329651 C-6.95341721 46.10813522 -7.93257599 46.10297394 -8.94140625 46.09765625 C-9.93881332 46.0962413 -10.9362204 46.09482635 -11.96385193 46.09336853 C-15.16343124 46.08775114 -18.36294169 46.07519571 -21.5625 46.0625 C-23.72591045 46.05748724 -25.88932199 46.05292395 -28.05273438 46.04882812 C-33.36851325 46.03777607 -38.68425171 46.02102104 -44 46 C-44 45.34 -44 44.68 -44 44 C-29.48 44 -14.96 44 0 44 C0 29.48 0 14.96 0 0 Z " fill="#01152B" transform="translate(73,67)"/>
<path d="M0 0 C0.33 0 0.66 0 1 0 C1.02464849 5.39346988 1.04283531 10.78690725 1.05493164 16.18041992 C1.05997231 18.01668875 1.06680477 19.85295354 1.07543945 21.68920898 C1.08751672 24.32276401 1.09323081 26.95626616 1.09765625 29.58984375 C1.10281754 30.41588608 1.10797882 31.24192841 1.11329651 32.09300232 C1.11349205 34.06236368 1.06204152 36.03161614 1 38 C0 39 0 39 -1.79066467 39.12025452 C-2.57009933 39.11803391 -3.349534 39.11581329 -4.15258789 39.11352539 C-5.03342545 39.11344986 -5.914263 39.11337433 -6.8217926 39.11329651 C-7.77907761 39.10813522 -8.73636261 39.10297394 -9.72265625 39.09765625 C-10.69786728 39.0962413 -11.67307831 39.09482635 -12.67784119 39.09336853 C-15.80609143 39.08775133 -18.93427123 39.07519593 -22.0625 39.0625 C-24.17773334 39.05748722 -26.29296781 39.05292393 -28.40820312 39.04882812 C-33.60549296 39.03777631 -38.80274145 39.02102146 -44 39 C-44.33 38.34 -44.66 37.68 -45 37 C-30.48 37 -15.96 37 -1 37 C-1.03960217 25.19736497 -1.03960217 25.19736497 -1.09008789 13.39477539 C-1.09300709 11.92073641 -1.09555564 10.44669663 -1.09765625 8.97265625 C-1.10277222 8.20046753 -1.10788818 7.42827881 -1.11315918 6.63269043 C-1.11346974 4.75474813 -1.06233569 2.87690747 -1 1 C-0.67 0.67 -0.34 0.34 0 0 Z " fill="#2D2D2F" transform="translate(74,18)"/>
<path d="M0 0 C0.66 0 1.32 0 2 0 C2.33 12.54 2.66 25.08 3 38 C2.01 37.67 1.02 37.34 0 37 C-0.16794307 32.37375882 -0.32846718 27.74734145 -0.48217773 23.12060547 C-0.53548564 21.54729317 -0.59080589 19.97404769 -0.64819336 18.40087891 C-0.73041829 16.13719081 -0.8053589 13.87335962 -0.87890625 11.609375 C-0.90594131 10.90818542 -0.93297638 10.20699585 -0.96083069 9.48455811 C-1.06222717 6.15257463 -1.05977883 3.18290477 0 0 Z " fill="#181818" transform="translate(27,19)"/>
<path d="M0 0 C0.86625 0.556875 0.86625 0.556875 1.75 1.125 C1.42 1.785 1.09 2.445 0.75 3.125 C1.41 3.125 2.07 3.125 2.75 3.125 C2.42 3.785 2.09 4.445 1.75 5.125 C0.76 4.795 -0.23 4.465 -1.25 4.125 C-1.25 3.465 -1.25 2.805 -1.25 2.125 C-2.9 1.795 -4.55 1.465 -6.25 1.125 C-2.80384615 -1.09038462 -2.80384615 -1.09038462 0 0 Z " fill="#1E1E20" transform="translate(135.25,25.875)"/>
<path d="M0 0 C0 3.90838866 -1.50567876 5.11594107 -4 8 C-4.66 7.67 -5.32 7.34 -6 7 C-5.67 5.68 -5.34 4.36 -5 3 C-4.01 3 -3.02 3 -2 3 C-2 2.34 -2 1.68 -2 1 C-1.34 0.67 -0.68 0.34 0 0 Z " fill="#181819" transform="translate(142,172)"/>
</svg>
