<svg width="200" height="200" viewBox="0 0 200 200" fill="none" xmlns="http://www.w3.org/2000/svg">
<rect width="200" height="200" fill="white"/>
<circle cx="100.5" cy="152.5" r="10" fill="#3292BC"/>
<circle cx="129.5" cy="152.5" r="10" fill="#3292BC"/>
<circle cx="158.5" cy="152.5" r="10" fill="#3292BC"/>
<path d="M188 66.5C138.206 75.5851 118.877 89.949 94 126C126.23 113.785 144.644 111.417 178.5 120.5C187.023 100.612 188.974 88.757 188 66.5Z" fill="#3292BC"/>
<path d="M96.5 35C67.5749 72.4279 67.1807 96.9296 75 142.5C89.8753 108.625 101.666 93.4427 129 75.5C123.974 59.28 117.544 50.3543 96.5 35Z" fill="#FFB21C"/>
<path d="M12 71.9998C18.9996 117.121 33.486 136.973 75 164.5C60.304 130.929 57.5538 112.292 66 79.4998C47.8416 72.3489 36.4737 70.0503 12 71.9998Z" fill="#D72120"/>
</svg>
